<?xml version="1.0" encoding="UTF-8"?>
<svg version="1.1" xmlns="http://www.w3.org/2000/svg" width="192" height="192">
<path d="M0 0 C22.44 0 44.88 0 68 0 C68 4.29 68 8.58 68 13 C77.57 12.67 87.14 12.34 97 12 C97 12.66 97 13.32 97 14 C97.825 14.66 98.65 15.32 99.5 16 C100.325 16.66 101.15 17.32 102 18 C102 18.66 102 19.32 102 20 C102.66 20.33 103.32 20.66 104 21 C103.34 21 102.68 21 102 21 C102 23.64 102 26.28 102 29 C106.29 29 110.58 29 115 29 C115.33 29.99 115.66 30.98 116 32 C116.66 32 117.32 32 118 32 C118 41.66666667 118 51.33333333 118 61 C122.29 61 126.58 61 131 61 C131 84.1 131 107.2 131 131 C128.27157939 132.36421031 126.39046682 131.87807211 123.375 131.5625 C121.87066406 131.40974609 121.87066406 131.40974609 120.3359375 131.25390625 C119.56507813 131.17011719 118.79421875 131.08632812 118 131 C118.07686035 132.18758911 118.07686035 132.18758911 118.15527344 133.39916992 C118.37554076 136.99432257 118.56309345 140.59046517 118.75 144.1875 C118.83121094 145.43337891 118.91242188 146.67925781 118.99609375 147.96289062 C119.08310547 149.7659668 119.08310547 149.7659668 119.171875 151.60546875 C119.2347168 152.71043701 119.29755859 153.81540527 119.36230469 154.95385742 C118.90883588 158.76647889 117.72802385 160.34734936 115 163 C111.765625 163.48828125 111.765625 163.48828125 108.25 163.3125 C107.07953125 163.26738281 105.9090625 163.22226563 104.703125 163.17578125 C103.81109375 163.11777344 102.9190625 163.05976563 102 163 C102.11859375 163.81984375 102.2371875 164.6396875 102.359375 165.484375 C102.48828125 166.56203125 102.6171875 167.6396875 102.75 168.75 C102.95882812 170.35101563 102.95882812 170.35101563 103.171875 171.984375 C103 175 103 175 101.3762207 177.15039062 C98.35508242 179.50199277 96.6090858 179.53641274 92.80859375 179.609375 C91.61685547 179.64160156 90.42511719 179.67382812 89.19726562 179.70703125 C87.95654297 179.72121094 86.71582031 179.73539063 85.4375 179.75 C84.19291016 179.77964844 82.94832031 179.80929688 81.66601562 179.83984375 C77.44357766 179.93586021 73.22352599 180 69 180 C68.67 183.96 68.34 187.92 68 192 C45.56 192 23.12 192 0 192 C0 188.37 0 184.74 0 181 C-1.06621038 179.70423186 -1.06621038 179.70423186 -3.56030273 179.93408203 C-4.67348877 179.95841309 -5.7866748 179.98274414 -6.93359375 180.0078125 C-8.13951172 180.02457031 -9.34542969 180.04132813 -10.58789062 180.05859375 C-13.15053862 180.10279975 -15.71306338 180.15486052 -18.27539062 180.21484375 C-19.48259766 180.22902344 -20.68980469 180.24320313 -21.93359375 180.2578125 C-23.04790771 180.2798877 -24.16222168 180.30196289 -25.31030273 180.32470703 C-26.19790283 180.21755371 -27.08550293 180.11040039 -28 180 C-28.66 179.01 -29.32 178.02 -30 177 C-31.485 176.01 -31.485 176.01 -33 175 C-32.67 171.04 -32.34 167.08 -32 163 C-32.90363281 163.03480469 -33.80726562 163.06960937 -34.73828125 163.10546875 C-35.91777344 163.13253906 -37.09726562 163.15960938 -38.3125 163.1875 C-39.48425781 163.22230469 -40.65601563 163.25710937 -41.86328125 163.29296875 C-45 163 -45 163 -46.91796875 161.61328125 C-48 160 -48 160 -48 158 C-48.66 157.67 -49.32 157.34 -50 157 C-49.34 157 -48.68 157 -48 157 C-48.33 148.75 -48.66 140.5 -49 132 C-52.96 131.67 -56.92 131.34 -61 131 C-61 107.9 -61 84.8 -61 61 C-56.71 61 -52.42 61 -48 61 C-48.03480469 58.94136719 -48.06960937 56.88273437 -48.10546875 54.76171875 C-48.12632947 52.76604295 -48.14708365 50.77036444 -48.16479492 48.7746582 C-48.17987397 47.38852081 -48.2003405 46.00243106 -48.22631836 44.61645508 C-48.26273716 42.62341854 -48.27813018 40.63003277 -48.29296875 38.63671875 C-48.31653442 36.83787231 -48.31653442 36.83787231 -48.34057617 35.00268555 C-48 32 -48 32 -46.67773438 30.10351562 C-43.9816675 28.33020039 -41.47774081 28.71848295 -38.3125 28.8125 C-37.13300781 28.83957031 -35.95351563 28.86664062 -34.73828125 28.89453125 C-33.83464844 28.92933594 -32.93101563 28.96414062 -32 29 C-32.05220703 27.64455078 -32.05220703 27.64455078 -32.10546875 26.26171875 C-32.13253906 25.08222656 -32.15960938 23.90273438 -32.1875 22.6875 C-32.22230469 21.51574219 -32.25710937 20.34398437 -32.29296875 19.13671875 C-32 16 -32 16 -30.89648438 14.32226562 C-28.06860404 12.3506127 -25.77827275 12.66229337 -22.36328125 12.70703125 C-21.06455078 12.71669922 -19.76582031 12.72636719 -18.42773438 12.73632812 C-17.05598361 12.76139415 -15.68423882 12.78678899 -14.3125 12.8125 C-12.92905076 12.8275498 -11.54558599 12.8412377 -10.16210938 12.85351562 C-6.77457274 12.88892542 -3.38723763 12.94273299 0 13 C0 8.71 0 4.42 0 0 Z M100 18 C100 21.63 100 25.26 100 29 C100.33 29 100.66 29 101 29 C101 25.37 101 21.74 101 18 C100.67 18 100.34 18 100 18 Z M-40 30 C-40 30.33 -40 30.66 -40 31 C-37.03 31 -34.06 31 -31 31 C-31 30.67 -31 30.34 -31 30 C-33.97 30 -36.94 30 -40 30 Z M100 30 C100 30.33 100 30.66 100 31 C103.3 31 106.6 31 110 31 C110 30.67 110 30.34 110 30 C106.7 30 103.4 30 100 30 Z " fill="#F80204" transform="translate(61,0)"/>
<path d="M0 0 C0.33 0 0.66 0 1 0 C1 4.29 1 8.58 1 13 C10.57 12.67 20.14 12.34 30 12 C30 12.66 30 13.32 30 14 C30.825 14.66 31.65 15.32 32.5 16 C33.325 16.66 34.15 17.32 35 18 C35 18.66 35 19.32 35 20 C35.66 20.33 36.32 20.66 37 21 C36.34 21 35.68 21 35 21 C35 23.64 35 26.28 35 29 C39.29 29 43.58 29 48 29 C48.33 29.99 48.66 30.98 49 32 C49.66 32 50.32 32 51 32 C51 41.66666667 51 51.33333333 51 61 C55.29 61 59.58 61 64 61 C64 84.1 64 107.2 64 131 C61.27157939 132.36421031 59.39046682 131.87807211 56.375 131.5625 C54.87066406 131.40974609 54.87066406 131.40974609 53.3359375 131.25390625 C52.56507813 131.17011719 51.79421875 131.08632812 51 131 C51.07686035 132.18758911 51.07686035 132.18758911 51.15527344 133.39916992 C51.37554076 136.99432257 51.56309345 140.59046517 51.75 144.1875 C51.83121094 145.43337891 51.91242188 146.67925781 51.99609375 147.96289062 C52.08310547 149.7659668 52.08310547 149.7659668 52.171875 151.60546875 C52.2347168 152.71043701 52.29755859 153.81540527 52.36230469 154.95385742 C51.90883588 158.76647889 50.72802385 160.34734936 48 163 C44.765625 163.48828125 44.765625 163.48828125 41.25 163.3125 C40.07953125 163.26738281 38.9090625 163.22226563 37.703125 163.17578125 C36.81109375 163.11777344 35.9190625 163.05976563 35 163 C35.11859375 163.81984375 35.2371875 164.6396875 35.359375 165.484375 C35.48828125 166.56203125 35.6171875 167.6396875 35.75 168.75 C35.95882812 170.35101563 35.95882812 170.35101563 36.171875 171.984375 C36 175 36 175 34.3762207 177.15039062 C31.35508242 179.50199277 29.6090858 179.53641274 25.80859375 179.609375 C24.61685547 179.64160156 23.42511719 179.67382812 22.19726562 179.70703125 C20.95654297 179.72121094 19.71582031 179.73539063 18.4375 179.75 C17.19291016 179.77964844 15.94832031 179.80929688 14.66601562 179.83984375 C10.44357766 179.93586021 6.22352599 180 2 180 C1.67 183.96 1.34 187.92 1 192 C-21.44 192 -43.88 192 -67 192 C-67 188.37 -67 184.74 -67 181 C-68.06621038 179.70423186 -68.06621038 179.70423186 -70.56030273 179.93408203 C-71.67348877 179.95841309 -72.7866748 179.98274414 -73.93359375 180.0078125 C-75.13951172 180.02457031 -76.34542969 180.04132813 -77.58789062 180.05859375 C-80.15053862 180.10279975 -82.71306338 180.15486052 -85.27539062 180.21484375 C-86.48259766 180.22902344 -87.68980469 180.24320313 -88.93359375 180.2578125 C-90.04790771 180.2798877 -91.16222168 180.30196289 -92.31030273 180.32470703 C-93.19790283 180.21755371 -94.08550293 180.11040039 -95 180 C-95.66 179.01 -96.32 178.02 -97 177 C-98.485 176.01 -98.485 176.01 -100 175 C-99.67 171.04 -99.34 167.08 -99 163 C-99.90363281 163.03480469 -100.80726562 163.06960937 -101.73828125 163.10546875 C-102.91777344 163.13253906 -104.09726563 163.15960938 -105.3125 163.1875 C-106.48425781 163.22230469 -107.65601563 163.25710937 -108.86328125 163.29296875 C-112 163 -112 163 -113.91796875 161.61328125 C-115 160 -115 160 -115 158 C-115.66 157.67 -116.32 157.34 -117 157 C-116.34 157 -115.68 157 -115 157 C-115.33 148.75 -115.66 140.5 -116 132 C-119.96 131.67 -123.92 131.34 -128 131 C-128 130.01 -128 129.02 -128 128 C-122.72 128 -117.44 128 -112 128 C-112 122.72 -112 117.44 -112 112 C-106.72 112 -101.44 112 -96 112 C-96 117.28 -96 122.56 -96 128 C-80.16 128 -64.32 128 -48 128 C-48 117.44 -48 106.88 -48 96 C-37.44 96 -26.88 96 -16 96 C-16 106.56 -16 117.12 -16 128 C-0.16 128 15.68 128 32 128 C32 122.72 32 117.44 32 112 C37.28 112 42.56 112 48 112 C48 117.28 48 122.56 48 128 C52.95 128 57.9 128 63 128 C63 106.88 63 85.76 63 64 C58.05 64 53.1 64 48 64 C48 74.56 48 85.12 48 96 C47.67 96 47.34 96 47 96 C47 85.77 47 75.54 47 65 C41.72 65 36.44 65 31 65 C31 54.44 31 43.88 31 33 C21.1 33 11.2 33 1 33 C1 32.67 1 32.34 1 32 C10.9 32 20.8 32 31 32 C31 27.05 31 22.1 31 17 C20.77 17 10.54 17 0 17 C0 11.39 0 5.78 0 0 Z M33 18 C33 21.63 33 25.26 33 29 C33.33 29 33.66 29 34 29 C34 25.37 34 21.74 34 18 C33.67 18 33.34 18 33 18 Z M33 30 C33 30.33 33 30.66 33 31 C36.3 31 39.6 31 43 31 C43 30.67 43 30.34 43 30 C39.7 30 36.4 30 33 30 Z " fill="#B4C1C8" transform="translate(128,0)"/>
<path d="M0 0 C15.84 0 31.68 0 48 0 C48 5.28 48 10.56 48 16 C53.28 16 58.56 16 64 16 C64 21.28 64 26.56 64 32 C58.72 32 53.44 32 48 32 C48 53.12 48 74.24 48 96 C32.16 96 16.32 96 0 96 C0 85.44 0 74.88 0 64 C-5.28 64 -10.56 64 -16 64 C-16 53.44 -16 42.88 -16 32 C-10.72 32 -5.44 32 0 32 C0 21.44 0 10.88 0 0 Z " fill="#F80203" transform="translate(32,32)"/>
<path d="M0 0 C22.11 0 44.22 0 67 0 C67 5.28 67 10.56 67 16 C45.88 16 24.76 16 3 16 C3 21.28 3 26.56 3 32 C-7.56 32 -18.12 32 -29 32 C-29 42.56 -29 53.12 -29 64 C-34.28 64 -39.56 64 -45 64 C-45 74.56 -45 85.12 -45 96 C-39.72 96 -34.44 96 -29 96 C-29 101.28 -29 106.56 -29 112 C-34.28 112 -39.56 112 -45 112 C-45 117.28 -45 122.56 -45 128 C-50.28 128 -55.56 128 -61 128 C-61 105.89 -61 83.78 -61 61 C-56.71 61 -52.42 61 -48 61 C-48.03480469 58.94136719 -48.06960937 56.88273437 -48.10546875 54.76171875 C-48.12632947 52.76604295 -48.14708365 50.77036444 -48.16479492 48.7746582 C-48.17987397 47.38852081 -48.2003405 46.00243106 -48.22631836 44.61645508 C-48.26273716 42.62341854 -48.27813018 40.63003277 -48.29296875 38.63671875 C-48.31653442 36.83787231 -48.31653442 36.83787231 -48.34057617 35.00268555 C-48 32 -48 32 -46.67773438 30.10351562 C-43.9816675 28.33020039 -41.47774081 28.71848295 -38.3125 28.8125 C-37.13300781 28.83957031 -35.95351563 28.86664062 -34.73828125 28.89453125 C-33.83464844 28.92933594 -32.93101563 28.96414062 -32 29 C-32.05220703 27.64455078 -32.05220703 27.64455078 -32.10546875 26.26171875 C-32.13253906 25.08222656 -32.15960938 23.90273438 -32.1875 22.6875 C-32.22230469 21.51574219 -32.25710937 20.34398437 -32.29296875 19.13671875 C-32 16 -32 16 -30.89648438 14.32226562 C-28.06860404 12.3506127 -25.77827275 12.66229337 -22.36328125 12.70703125 C-21.06455078 12.71669922 -19.76582031 12.72636719 -18.42773438 12.73632812 C-17.05598361 12.76139415 -15.68423882 12.78678899 -14.3125 12.8125 C-12.92905076 12.8275498 -11.54558599 12.8412377 -10.16210938 12.85351562 C-6.77457274 12.88892542 -3.38723763 12.94273299 0 13 C0 8.71 0 4.42 0 0 Z M-40 30 C-40 30.33 -40 30.66 -40 31 C-37.03 31 -34.06 31 -31 31 C-31 30.67 -31 30.34 -31 30 C-33.97 30 -36.94 30 -40 30 Z " fill="#0C0607" transform="translate(61,0)"/>
<path d="M0 0 C15.84 0 31.68 0 48 0 C48 5.28 48 10.56 48 16 C58.56 16 69.12 16 80 16 C80 21.28 80 26.56 80 32 C53.6 32 27.2 32 0 32 C0 21.44 0 10.88 0 0 Z " fill="#FDFDFD" transform="translate(32,128)"/>
<path d="M0 0 C5.28 0 10.56 0 16 0 C16 10.56 16 21.12 16 32 C21.28 32 26.56 32 32 32 C32 37.28 32 42.56 32 48 C26.72 48 21.44 48 16 48 C16 53.28 16 58.56 16 64 C10.72 64 5.44 64 0 64 C0 42.88 0 21.76 0 0 Z " fill="#090303" transform="translate(0,64)"/>
<path d="M0 0 C5.28 0 10.56 0 16 0 C16 5.28 16 10.56 16 16 C21.28 16 26.56 16 32 16 C32 21.28 32 26.56 32 32 C26.72 32 21.44 32 16 32 C16 37.28 16 42.56 16 48 C10.72 48 5.44 48 0 48 C0 42.72 0 37.44 0 32 C-5.28 32 -10.56 32 -16 32 C-16 26.72 -16 21.44 -16 16 C-10.72 16 -5.44 16 0 16 C0 10.72 0 5.44 0 0 Z " fill="#FCF5F6" transform="translate(64,32)"/>
<path d="M0 0 C4.95 0 9.9 0 15 0 C15 21.12 15 42.24 15 64 C10.05 64 5.1 64 0 64 C0 58.72 0 53.44 0 48 C-5.28 48 -10.56 48 -16 48 C-16 42.72 -16 37.44 -16 32 C-10.72 32 -5.44 32 0 32 C0 21.44 0 10.88 0 0 Z " fill="#060202" transform="translate(176,64)"/>
<path d="M0 0 C5.28 0 10.56 0 16 0 C16 21.12 16 42.24 16 64 C26.56 64 37.12 64 48 64 C48 69.28 48 74.56 48 80 C47.01 79.67 46.02 79.34 45 79 C45.01160156 78.28972656 45.02320313 77.57945312 45.03515625 76.84765625 C45.04417969 75.92855469 45.05320313 75.00945312 45.0625 74.0625 C45.07410156 73.14597656 45.08570313 72.22945313 45.09765625 71.28515625 C45.25949049 69.03406673 45.25949049 69.03406673 44 68 C42.02278891 67.9490944 40.04380027 67.96459234 38.06640625 68.0078125 C36.86048828 68.02457031 35.65457031 68.04132813 34.41210938 68.05859375 C31.84946138 68.10279975 29.28693662 68.15486052 26.72460938 68.21484375 C25.51740234 68.22902344 24.31019531 68.24320312 23.06640625 68.2578125 C21.95209229 68.2798877 20.83777832 68.30196289 19.68969727 68.32470703 C18.80209717 68.21755371 17.91449707 68.11040039 17 68 C16.34 67.01 15.68 66.02 15 65 C14.01 64.34 13.02 63.68 12 63 C12.33 59.04 12.66 55.08 13 51 C11.64455078 51.05220703 11.64455078 51.05220703 10.26171875 51.10546875 C9.08222656 51.13253906 7.90273438 51.15960938 6.6875 51.1875 C5.51574219 51.22230469 4.34398437 51.25710937 3.13671875 51.29296875 C-0 51 -0 51 -1.91796875 49.61328125 C-3 48 -3 48 -3 46 C-3.66 45.67 -4.32 45.34 -5 45 C-4.34 45 -3.68 45 -3 45 C-3.33 36.75 -3.66 28.5 -4 20 C-7.96 19.67 -11.92 19.34 -16 19 C-16 18.01 -16 17.02 -16 16 C-10.72 16 -5.44 16 0 16 C0 10.72 0 5.44 0 0 Z " fill="#060606" transform="translate(16,112)"/>
<path d="M0 0 C5.28 0 10.56 0 16 0 C16 5.28 16 10.56 16 16 C26.56 16 37.12 16 48 16 C48 21.28 48 26.56 48 32 C32.16 32 16.32 32 0 32 C0 21.44 0 10.88 0 0 Z " fill="#080102" transform="translate(112,96)"/>
<path d="M0 0 C5.28 0 10.56 0 16 0 C16 10.56 16 21.12 16 32 C0.16 32 -15.68 32 -32 32 C-32 26.72 -32 21.44 -32 16 C-21.44 16 -10.88 16 0 16 C0 10.72 0 5.44 0 0 Z " fill="#080202" transform="translate(64,96)"/>
<path d="M0 0 C10.56 0 21.12 0 32 0 C32 10.56 32 21.12 32 32 C21.44 32 10.88 32 0 32 C0 21.44 0 10.88 0 0 Z " fill="#B5C1C7" transform="translate(80,96)"/>
<path d="M0 0 C20.79 0 41.58 0 63 0 C63 5.28 63 10.56 63 16 C42.21 16 21.42 16 0 16 C0 10.72 0 5.44 0 0 Z " fill="#030303" transform="translate(64,176)"/>
<path d="M0 0 C0.33 0 0.66 0 1 0 C1 4.29 1 8.58 1 13 C10.57 12.67 20.14 12.34 30 12 C30 12.66 30 13.32 30 14 C31.2375 14.99 31.2375 14.99 32.5 16 C33.325 16.66 34.15 17.32 35 18 C35 18.66 35 19.32 35 20 C35.66 20.33 36.32 20.66 37 21 C36.34 21 35.68 21 35 21 C35 23.64 35 26.28 35 29 C39.29 29 43.58 29 48 29 C48.495 30.485 48.495 30.485 49 32 C49.66 32 50.32 32 51 32 C51 41.66666667 51 51.33333333 51 61 C55.29 61 59.58 61 64 61 C64 83.11 64 105.22 64 128 C63.67 128 63.34 128 63 128 C63 106.88 63 85.76 63 64 C58.05 64 53.1 64 48 64 C48 74.56 48 85.12 48 96 C47.67 96 47.34 96 47 96 C47 85.77 47 75.54 47 65 C41.72 65 36.44 65 31 65 C31 54.44 31 43.88 31 33 C21.1 33 11.2 33 1 33 C1 32.67 1 32.34 1 32 C10.9 32 20.8 32 31 32 C31 27.05 31 22.1 31 17 C20.77 17 10.54 17 0 17 C0 11.39 0 5.78 0 0 Z M33 18 C33 21.63 33 25.26 33 29 C33.33 29 33.66 29 34 29 C34 25.37 34 21.74 34 18 C33.67 18 33.34 18 33 18 Z M33 30 C33 30.33 33 30.66 33 31 C36.3 31 39.6 31 43 31 C43 30.67 43 30.34 43 30 C39.7 30 36.4 30 33 30 Z " fill="#C19F9F" transform="translate(128,0)"/>
<path d="M0 0 C5.28 0 10.56 0 16 0 C16 5.28 16 10.56 16 16 C21.28 16 26.56 16 32 16 C31.67 17.32 31.34 18.64 31 20 C27.04 19.67 23.08 19.34 19 19 C19.11859375 20.89105469 19.2371875 22.78210938 19.359375 24.73046875 C19.49069071 27.21608758 19.62083819 29.70176832 19.75 32.1875 C19.83121094 33.43337891 19.91242188 34.67925781 19.99609375 35.96289062 C20.05410156 37.16494141 20.11210937 38.36699219 20.171875 39.60546875 C20.2347168 40.71043701 20.29755859 41.81540527 20.36230469 42.95385742 C19.90883588 46.76647889 18.72802385 48.34734936 16 51 C12.765625 51.48828125 12.765625 51.48828125 9.25 51.3125 C8.07953125 51.26738281 6.9090625 51.22226563 5.703125 51.17578125 C4.36507812 51.08876953 4.36507812 51.08876953 3 51 C3.11859375 51.81984375 3.2371875 52.6396875 3.359375 53.484375 C3.48828125 54.56203125 3.6171875 55.6396875 3.75 56.75 C3.88921875 57.81734375 4.0284375 58.8846875 4.171875 59.984375 C4 63 4 63 2.3762207 65.15039062 C-0.64491758 67.50199277 -2.3909142 67.53641274 -6.19140625 67.609375 C-7.38314453 67.64160156 -8.57488281 67.67382812 -9.80273438 67.70703125 C-11.04345703 67.72121094 -12.28417969 67.73539062 -13.5625 67.75 C-14.80708984 67.77964844 -16.05167969 67.80929688 -17.33398438 67.83984375 C-21.55642234 67.93586021 -25.77647401 68 -30 68 C-30.33 71.96 -30.66 75.92 -31 80 C-31.33 80 -31.66 80 -32 80 C-32 74.72 -32 69.44 -32 64 C-21.44 64 -10.88 64 0 64 C0 58.72 0 53.44 0 48 C4.95 48 9.9 48 15 48 C15 37.44 15 26.88 15 16 C10.05 16 5.1 16 0 16 C0 10.72 0 5.44 0 0 Z " fill="#FDFDFD" transform="translate(160,112)"/>
<path d="M0 0 C10.56 0 21.12 0 32 0 C32 5.28 32 10.56 32 16 C21.44 16 10.88 16 0 16 C0 10.72 0 5.44 0 0 Z " fill="#040505" transform="translate(32,160)"/>
<path d="M0 0 C10.56 0 21.12 0 32 0 C32 5.28 32 10.56 32 16 C21.44 16 10.88 16 0 16 C0 10.72 0 5.44 0 0 Z " fill="#020203" transform="translate(80,128)"/>
<path d="M0 0 C10.56 0 21.12 0 32 0 C32 5.28 32 10.56 32 16 C21.44 16 10.88 16 0 16 C0 10.72 0 5.44 0 0 Z " fill="#0C0001" transform="translate(80,80)"/>
<path d="M0 0 C5.28 0 10.56 0 16 0 C16 10.56 16 21.12 16 32 C10.72 32 5.44 32 0 32 C0 21.44 0 10.88 0 0 Z " fill="#0F0404" transform="translate(16,32)"/>
<path d="M0 0 C10.56 0 21.12 0 32 0 C32 5.28 32 10.56 32 16 C21.44 16 10.88 16 0 16 C0 10.72 0 5.44 0 0 Z " fill="#0E0505" transform="translate(32,16)"/>
<path d="M0 0 C10.23 0 20.46 0 31 0 C31 5.28 31 10.56 31 16 C20.77 16 10.54 16 0 16 C0 10.72 0 5.44 0 0 Z " fill="#030303" transform="translate(128,160)"/>
<path d="M0 0 C4.95 0 9.9 0 15 0 C15 10.56 15 21.12 15 32 C10.05 32 5.1 32 0 32 C0 21.44 0 10.88 0 0 Z " fill="#020202" transform="translate(160,128)"/>
<path d="M0 0 C4.95 0 9.9 0 15 0 C15 10.56 15 21.12 15 32 C10.05 32 5.1 32 0 32 C0 21.44 0 10.88 0 0 Z " fill="#0A0303" transform="translate(160,32)"/>
<path d="M0 0 C10.23 0 20.46 0 31 0 C31 4.95 31 9.9 31 15 C20.77 15 10.54 15 0 15 C0 10.05 0 5.1 0 0 Z " fill="#090102" transform="translate(128,17)"/>
<path d="M0 0 C5.28 0 10.56 0 16 0 C16 10.56 16 21.12 16 32 C21.28 32 26.56 32 32 32 C32 37.28 32 42.56 32 48 C42.56 48 53.12 48 64 48 C64 53.28 64 58.56 64 64 C63.01 63.67 62.02 63.34 61 63 C61.01160156 62.28972656 61.02320313 61.57945312 61.03515625 60.84765625 C61.04417969 59.92855469 61.05320313 59.00945312 61.0625 58.0625 C61.07410156 57.14597656 61.08570313 56.22945312 61.09765625 55.28515625 C61.25949049 53.03406673 61.25949049 53.03406673 60 52 C58.02278891 51.9490944 56.04380027 51.96459234 54.06640625 52.0078125 C52.86048828 52.02457031 51.65457031 52.04132813 50.41210938 52.05859375 C47.84946138 52.10279975 45.28693662 52.15486052 42.72460938 52.21484375 C41.51740234 52.22902344 40.31019531 52.24320313 39.06640625 52.2578125 C37.95209229 52.2798877 36.83777832 52.30196289 35.68969727 52.32470703 C34.80209717 52.21755371 33.91449707 52.11040039 33 52 C32.34 51.01 31.68 50.02 31 49 C30.01 48.34 29.02 47.68 28 47 C28.33 43.04 28.66 39.08 29 35 C27.64455078 35.05220703 27.64455078 35.05220703 26.26171875 35.10546875 C25.08222656 35.13253906 23.90273438 35.15960938 22.6875 35.1875 C21.51574219 35.22230469 20.34398437 35.25710937 19.13671875 35.29296875 C16 35 16 35 14.08203125 33.61328125 C13 32 13 32 13 30 C12.34 29.67 11.68 29.34 11 29 C11.66 29 12.32 29 13 29 C12.67 20.75 12.34 12.5 12 4 C8.04 3.67 4.08 3.34 0 3 C0 2.01 0 1.02 0 0 Z " fill="#F7F7F7" transform="translate(0,128)"/>
<path d="M0 0 C0.99 0 1.98 0 3 0 C3 5.28 3 10.56 3 16 C-7.56 16 -18.12 16 -29 16 C-29 21.28 -29 26.56 -29 32 C-34.28 32 -39.56 32 -45 32 C-45 42.56 -45 53.12 -45 64 C-50.28 64 -55.56 64 -61 64 C-61 63.01 -61 62.02 -61 61 C-56.71 61 -52.42 61 -48 61 C-48.03480469 58.94136719 -48.06960937 56.88273437 -48.10546875 54.76171875 C-48.12632947 52.76604295 -48.14708365 50.77036444 -48.16479492 48.7746582 C-48.17987397 47.38852081 -48.2003405 46.00243106 -48.22631836 44.61645508 C-48.26273716 42.62341854 -48.27813018 40.63003277 -48.29296875 38.63671875 C-48.31653442 36.83787231 -48.31653442 36.83787231 -48.34057617 35.00268555 C-48 32 -48 32 -46.67773438 30.10351562 C-43.9816675 28.33020039 -41.47774081 28.71848295 -38.3125 28.8125 C-37.13300781 28.83957031 -35.95351563 28.86664062 -34.73828125 28.89453125 C-33.83464844 28.92933594 -32.93101563 28.96414062 -32 29 C-32.05220703 27.64455078 -32.05220703 27.64455078 -32.10546875 26.26171875 C-32.13253906 25.08222656 -32.15960938 23.90273438 -32.1875 22.6875 C-32.22230469 21.51574219 -32.25710937 20.34398437 -32.29296875 19.13671875 C-32 16 -32 16 -30.89648438 14.32226562 C-28.06860404 12.3506127 -25.77827275 12.66229337 -22.36328125 12.70703125 C-21.06455078 12.71669922 -19.76582031 12.72636719 -18.42773438 12.73632812 C-17.05598361 12.76139415 -15.68423882 12.78678899 -14.3125 12.8125 C-12.92905076 12.8275498 -11.54558599 12.8412377 -10.16210938 12.85351562 C-6.77457274 12.88892542 -3.38723763 12.94273299 0 13 C0 8.71 0 4.42 0 0 Z M-40 30 C-40 30.33 -40 30.66 -40 31 C-37.03 31 -34.06 31 -31 31 C-31 30.67 -31 30.34 -31 30 C-33.97 30 -36.94 30 -40 30 Z " fill="#F9F9F9" transform="translate(61,0)"/>
<path d="M0 0 C5.28 0 10.56 0 16 0 C16 15.84 16 31.68 16 48 C15.67 48 15.34 48 15 48 C15 37.44 15 26.88 15 16 C10.05 16 5.1 16 0 16 C0 10.72 0 5.44 0 0 Z " fill="#AEB7BC" transform="translate(160,112)"/>
<path d="M0 0 C5.28 0 10.56 0 16 0 C16 5.28 16 10.56 16 16 C10.72 16 5.44 16 0 16 C0 10.72 0 5.44 0 0 Z " fill="#BAC4CA" transform="translate(32,144)"/>
<path d="M0 0 C5.28 0 10.56 0 16 0 C16 5.28 16 10.56 16 16 C10.72 16 5.44 16 0 16 C0 10.72 0 5.44 0 0 Z " fill="#F9F9F9" transform="translate(16,112)"/>
<path d="M0 0 C5.28 0 10.56 0 16 0 C16 5.28 16 10.56 16 16 C10.72 16 5.44 16 0 16 C0 10.72 0 5.44 0 0 Z " fill="#FCFCFC" transform="translate(80,96)"/>
<path d="M0 0 C10.56 0 21.12 0 32 0 C32 5.28 32 10.56 32 16 C26.72 16 21.44 16 16 16 C16 21.28 16 26.56 16 32 C15.67 32 15.34 32 15 32 C15 26.06 15 20.12 15 14 C18.05989583 13.77213542 21.11979167 13.54427083 24.1796875 13.31640625 C26.94728971 13.16998297 26.94728971 13.16998297 29 12 C29.46751788 9.64400765 29.46751788 9.64400765 29.625 6.9375 C29.69976562 6.01839844 29.77453125 5.09929688 29.8515625 4.15234375 C29.90054688 3.44207031 29.94953125 2.73179688 30 2 C28.99582031 2.01160156 27.99164063 2.02320313 26.95703125 2.03515625 C25.57552273 2.04455427 24.19401215 2.05365226 22.8125 2.0625 C21.83120117 2.07506836 21.83120117 2.07506836 20.83007812 2.08789062 C14.12844455 2.11965192 7.76404903 1.52031146 1 1 C1 11.23 1 21.46 1 32 C0.67 32 0.34 32 0 32 C0 21.44 0 10.88 0 0 Z " fill="#D21E1D" transform="translate(32,32)"/>
<path d="M0 0 C4.95 0 9.9 0 15 0 C15 10.56 15 21.12 15 32 C14.34 32 13.68 32 13 32 C13 31.34 13 30.68 13 30 C12.34 29.67 11.68 29.34 11 29 C11.66 29 12.32 29 13 29 C12.67 20.75 12.34 12.5 12 4 C8.04 3.67 4.08 3.34 0 3 C0 2.01 0 1.02 0 0 Z " fill="#FDFDFD" transform="translate(0,128)"/>
<path d="M0 0 C5.28 0 10.56 0 16 0 C16 5.28 16 10.56 16 16 C10.72 16 5.44 16 0 16 C0 15.67 0 15.34 0 15 C4.62 15 9.24 15 14 15 C14 10.71 14 6.42 14 2 C7.07 1.505 7.07 1.505 0 1 C0 0.67 0 0.34 0 0 Z " fill="#C21817" transform="translate(64,80)"/>
<path d="M0 0 C2.64 0 5.28 0 8 0 C8 10.23 8 20.46 8 31 C3.05 31 -1.9 31 -7 31 C-7 30.67 -7 30.34 -7 30 C-5.84371094 29.92652344 -5.84371094 29.92652344 -4.6640625 29.8515625 C-3.66117188 29.77679688 -2.65828125 29.70203125 -1.625 29.625 C-0.12839844 29.52058594 -0.12839844 29.52058594 1.3984375 29.4140625 C4.15508879 29.23636036 4.15508879 29.23636036 6 27 C6.37207354 24.28384136 6.37207354 24.28384136 6.4140625 21.1171875 C6.47207031 19.36728516 6.47207031 19.36728516 6.53125 17.58203125 C6.5621875 16.35871094 6.593125 15.13539062 6.625 13.875 C6.66367188 12.64394531 6.70234375 11.41289063 6.7421875 10.14453125 C6.8366999 7.09650624 6.92225494 4.04849138 7 1 C4.69 1 2.38 1 0 1 C0 0.67 0 0.34 0 0 Z " fill="#DD0E0F" transform="translate(167,65)"/>
<path d="M0 0 C5.28 0 10.56 0 16 0 C16 5.28 16 10.56 16 16 C15.34 16 14.68 16 14 16 C14 11.38 14 6.76 14 2 C12.80375 2.020625 11.6075 2.04125 10.375 2.0625 C6.81995131 2.06882571 3.49444376 1.69888875 0 1 C0 0.67 0 0.34 0 0 Z " fill="#D82729" transform="translate(48,64)"/>
<path d="M0 0 C14.85 0 29.7 0 45 0 C45 0.33 45 0.66 45 1 C43.74340576 1.01981934 42.48681152 1.03963867 41.19213867 1.06005859 C36.53470653 1.13606997 31.87758865 1.22479423 27.22045898 1.31738281 C25.20392048 1.35569104 23.18731322 1.39054065 21.1706543 1.421875 C18.27367558 1.46748549 15.37717104 1.52548639 12.48046875 1.5859375 C11.57725388 1.59748871 10.674039 1.60903992 9.74345398 1.62094116 C8.4824865 1.6507457 8.4824865 1.6507457 7.19604492 1.68115234 C6.08684944 1.70113785 6.08684944 1.70113785 4.95524597 1.7215271 C2.67895835 1.90214412 2.67895835 1.90214412 0 4 C0 2.68 0 1.36 0 0 Z " fill="#EA080A" transform="translate(65,17)"/>
<path d="M0 0 C3.96 0 7.92 0 12 0 C12 0.33 12 0.66 12 1 C10.14375 1.1546875 10.14375 1.1546875 8.25 1.3125 C4.7207134 1.73801682 2.62839034 2.48112592 0 5 C0 3.35 0 1.7 0 0 Z " fill="#EB0809" transform="translate(17,65)"/>
<path d="M0 0 C3.96 0 7.92 0 12 0 C12 0.33 12 0.66 12 1 C10.14375 1.1546875 10.14375 1.1546875 8.25 1.3125 C4.7207134 1.73801682 2.62839034 2.48112592 0 5 C0 3.35 0 1.7 0 0 Z " fill="#EC0809" transform="translate(33,33)"/>
<path d="M0 0 C0.33 0 0.66 0 1 0 C1 4.95 1 9.9 1 15 C-0.32 14.67 -1.64 14.34 -3 14 C-2.34 13.34 -1.68 12.68 -1 12 C-0.53603307 9.10776497 -0.53603307 9.10776497 -0.375 5.875 C-0.30023438 4.77929688 -0.22546875 3.68359375 -0.1484375 2.5546875 C-0.09945312 1.71164063 -0.05046875 0.86859375 0 0 Z " fill="#E40A0C" transform="translate(158,96)"/>
<path d="M0 0 C0.33 0 0.66 0 1 0 C1 4.95 1 9.9 1 15 C-0.32 14.67 -1.64 14.34 -3 14 C-2.34 13.34 -1.68 12.68 -1 12 C-0.53603307 9.10776497 -0.53603307 9.10776497 -0.375 5.875 C-0.30023438 4.77929688 -0.22546875 3.68359375 -0.1484375 2.5546875 C-0.09945312 1.71164063 -0.05046875 0.86859375 0 0 Z " fill="#E5090B" transform="translate(62,96)"/>
<path d="M0 0 C4.95 0 9.9 0 15 0 C15 0.33 15 0.66 15 1 C14.16855469 1.04898438 13.33710937 1.09796875 12.48046875 1.1484375 C11.39378906 1.22320312 10.30710937 1.29796875 9.1875 1.375 C8.10855469 1.44460937 7.02960938 1.51421875 5.91796875 1.5859375 C2.81373814 1.81195733 2.81373814 1.81195733 0 4 C0 2.68 0 1.36 0 0 Z " fill="#EA0808" transform="translate(81,65)"/>
<path d="M0 0 C0.33 0 0.66 0 1 0 C1 4.62 1 9.24 1 14 C-0.32 13.67 -1.64 13.34 -3 13 C-2.34 12.34 -1.68 11.68 -1 11 C-0.53709779 8.33757179 -0.53709779 8.33757179 -0.375 5.375 C-0.30023438 4.37210938 -0.22546875 3.36921875 -0.1484375 2.3359375 C-0.09945312 1.56507812 -0.05046875 0.79421875 0 0 Z " fill="#170000" transform="translate(62,17)"/>
<path d="M0 0 C0.33 0 0.66 0 1 0 C1 3.96 1 7.92 1 12 C0.67 12 0.34 12 0 12 C0 8.04 0 4.08 0 0 Z " fill="#FFFFFF" transform="translate(130,0)"/>
<path d="M0 0 C0.33 0 0.66 0 1 0 C1.33 1.98 1.66 3.96 2 6 C1.34 6 0.68 6 0 6 C0 4.02 0 2.04 0 0 Z " fill="#FFFFFF" transform="translate(130,186)"/>
<path d="M0 0 C1 4 1 4 1 4 Z " fill="#FFFFFF" transform="translate(130,181)"/>
<path d="M0 0 C2 1 2 1 2 1 Z " fill="#FFFFFF" transform="translate(180,34)"/>
<path d="" fill="#FFFFFF" transform="translate(0,0)"/>
<path d="" fill="#FFFFFF" transform="translate(0,0)"/>
<path d="" fill="#FFFFFF" transform="translate(0,0)"/>
<path d="" fill="#FFFFFF" transform="translate(0,0)"/>
<path d="" fill="#FFFFFF" transform="translate(0,0)"/>
<path d="" fill="#FFFFFF" transform="translate(0,0)"/>
<path d="" fill="#FFFFFF" transform="translate(0,0)"/>
<path d="" fill="#FFFFFF" transform="translate(0,0)"/>
<path d="" fill="#FFFFFF" transform="translate(0,0)"/>
<path d="" fill="#FFFFFF" transform="translate(0,0)"/>
<path d="" fill="#FFFFFF" transform="translate(0,0)"/>
<path d="" fill="#FFFFFF" transform="translate(0,0)"/>
<path d="" fill="#FFFFFF" transform="translate(0,0)"/>
<path d="" fill="#FFFFFF" transform="translate(0,0)"/>
<path d="" fill="#FFFFFF" transform="translate(0,0)"/>
<path d="" fill="#FFFFFF" transform="translate(0,0)"/>
</svg>
